<?xml version="1.0" encoding="UTF-8" standalone="no"?>
<!DOCTYPE svg PUBLIC "-//W3C//DTD SVG 1.1//EN"
 "http://www.w3.org/Graphics/SVG/1.1/DTD/svg11.dtd">
<!-- Generated by graphviz version 2.43.0 (0)
 -->
<!-- Title: G Pages: 1 -->
<svg width="861pt" height="158pt"
 viewBox="0.00 0.00 861.47 157.64" xmlns="http://www.w3.org/2000/svg" xmlns:xlink="http://www.w3.org/1999/xlink">
<g id="graph0" class="graph" transform="scale(1 1) rotate(0) translate(4 153.64)">
<title>G</title>
<polygon fill="white" stroke="transparent" points="-4,4 -4,-153.64 857.47,-153.64 857.47,4 -4,4"/>
<!-- BASE -->
<g id="node1" class="node">
<title>BASE</title>
<polygon fill="gray" stroke="black" points="51,-100.65 0,-100.65 0,-49.65 51,-49.65 51,-100.65"/>
<text text-anchor="middle" x="25.5" y="-71.45" font-family="Times,serif" font-size="14.00">BASE</text>
</g>
<!-- link0 -->
<g id="node2" class="node">
<title>link0</title>
<ellipse fill="none" stroke="black" cx="153.6" cy="-75.15" rx="28.7" ry="28.7"/>
<text text-anchor="middle" x="153.6" y="-71.45" font-family="Times,serif" font-size="14.00">link0</text>
</g>
<!-- BASE&#45;&gt;link0 -->
<g id="edge1" class="edge">
<title>BASE&#45;&gt;link0</title>
<path fill="none" stroke="black" d="M51.11,-75.15C69.26,-75.15 94.28,-75.15 114.94,-75.15"/>
<polygon fill="black" stroke="black" points="114.98,-78.65 124.98,-75.15 114.98,-71.65 114.98,-78.65"/>
<text text-anchor="middle" x="88" y="-78.95" font-family="Times,serif" font-size="14.00">Rz(q0)</text>
</g>
<!-- link1 -->
<g id="node3" class="node">
<title>link1</title>
<ellipse fill="none" stroke="black" cx="332.79" cy="-75.15" rx="28.7" ry="28.7"/>
<text text-anchor="middle" x="332.79" y="-71.45" font-family="Times,serif" font-size="14.00">link1</text>
</g>
<!-- link0&#45;&gt;link1 -->
<g id="edge2" class="edge">
<title>link0&#45;&gt;link1</title>
<path fill="none" stroke="black" d="M182.28,-75.15C212.23,-75.15 260.18,-75.15 293.68,-75.15"/>
<polygon fill="black" stroke="black" points="294.01,-78.65 304.01,-75.15 294.01,-71.65 294.01,-78.65"/>
<text text-anchor="middle" x="243.19" y="-78.95" font-family="Times,serif" font-size="14.00">tx(1) ⊕ Rz(q1)</text>
</g>
<!-- link2a -->
<g id="node4" class="node">
<title>link2a</title>
<ellipse fill="none" stroke="black" cx="516.54" cy="-117.15" rx="32.49" ry="32.49"/>
<text text-anchor="middle" x="516.54" y="-113.45" font-family="Times,serif" font-size="14.00">link2a</text>
</g>
<!-- link1&#45;&gt;link2a -->
<g id="edge3" class="edge">
<title>link1&#45;&gt;link2a</title>
<path fill="none" stroke="black" d="M361,-81.43C391.19,-88.41 440.23,-99.74 474.96,-107.77"/>
<polygon fill="black" stroke="black" points="474.26,-111.2 484.79,-110.04 475.84,-104.38 474.26,-111.2"/>
<text text-anchor="middle" x="422.39" y="-107.95" font-family="Times,serif" font-size="14.00">tx(1) ⊕ Rz(q2)</text>
</g>
<!-- link2b -->
<g id="node6" class="node">
<title>link2b</title>
<ellipse fill="none" stroke="black" cx="516.54" cy="-33.15" rx="33.29" ry="33.29"/>
<text text-anchor="middle" x="516.54" y="-29.45" font-family="Times,serif" font-size="14.00">link2b</text>
</g>
<!-- link1&#45;&gt;link2b -->
<g id="edge5" class="edge">
<title>link1&#45;&gt;link2b</title>
<path fill="none" stroke="black" d="M361,-68.86C391.01,-61.92 439.65,-50.69 474.34,-42.67"/>
<polygon fill="black" stroke="black" points="475.22,-46.06 484.17,-40.4 473.64,-39.24 475.22,-46.06"/>
<text text-anchor="middle" x="422.39" y="-67.95" font-family="Times,serif" font-size="14.00">tx(1) ⊕ Rz(q4)</text>
</g>
<!-- link3a -->
<g id="node5" class="node">
<title>link3a</title>
<ellipse fill="none" stroke="black" cx="704.83" cy="-117.15" rx="32.49" ry="32.49"/>
<text text-anchor="middle" x="704.83" y="-113.45" font-family="Times,serif" font-size="14.00">link3a</text>
</g>
<!-- link2a&#45;&gt;link3a -->
<g id="edge4" class="edge">
<title>link2a&#45;&gt;link3a</title>
<path fill="none" stroke="black" d="M549.14,-117.15C580.18,-117.15 627.74,-117.15 661.93,-117.15"/>
<polygon fill="black" stroke="black" points="662.07,-120.65 672.07,-117.15 662.07,-113.65 662.07,-120.65"/>
<text text-anchor="middle" x="610.68" y="-120.95" font-family="Times,serif" font-size="14.00">tx(1) ⊕ Rz(q3)</text>
</g>
<!-- eea -->
<g id="node8" class="node">
<title>eea</title>
<ellipse fill="none" stroke="blue" cx="826.73" cy="-117.15" rx="22.96" ry="22.96"/>
<ellipse fill="none" stroke="blue" cx="826.73" cy="-117.15" rx="27" ry="27"/>
<text text-anchor="middle" x="826.73" y="-113.45" font-family="Times,serif" font-size="14.00" fill="blue">eea</text>
</g>
<!-- link3a&#45;&gt;eea -->
<g id="edge7" class="edge">
<title>link3a&#45;&gt;eea</title>
<path fill="none" stroke="black" d="M737.33,-117.15C753.27,-117.15 772.7,-117.15 789.27,-117.15"/>
<polygon fill="black" stroke="black" points="789.69,-120.65 799.69,-117.15 789.69,-113.65 789.69,-120.65"/>
<text text-anchor="middle" x="768.98" y="-120.95" font-family="Times,serif" font-size="14.00" fill="blue">tz(1)</text>
</g>
<!-- link3b -->
<g id="node7" class="node">
<title>link3b</title>
<ellipse fill="none" stroke="black" cx="704.83" cy="-33.15" rx="33.29" ry="33.29"/>
<text text-anchor="middle" x="704.83" y="-29.45" font-family="Times,serif" font-size="14.00">link3b</text>
</g>
<!-- link2b&#45;&gt;link3b -->
<g id="edge6" class="edge">
<title>link2b&#45;&gt;link3b</title>
<path fill="none" stroke="black" d="M549.99,-33.15C580.88,-33.15 627.55,-33.15 661.38,-33.15"/>
<polygon fill="black" stroke="black" points="661.44,-36.65 671.44,-33.15 661.44,-29.65 661.44,-36.65"/>
<text text-anchor="middle" x="610.68" y="-36.95" font-family="Times,serif" font-size="14.00">tx(1) ⊕ Rz(q5)</text>
</g>
<!-- eeb -->
<g id="node9" class="node">
<title>eeb</title>
<ellipse fill="none" stroke="blue" cx="826.73" cy="-33.15" rx="22.96" ry="22.96"/>
<ellipse fill="none" stroke="blue" cx="826.73" cy="-33.15" rx="27" ry="27"/>
<text text-anchor="middle" x="826.73" y="-29.45" font-family="Times,serif" font-size="14.00" fill="blue">eeb</text>
</g>
<!-- link3b&#45;&gt;eeb -->
<g id="edge8" class="edge">
<title>link3b&#45;&gt;eeb</title>
<path fill="none" stroke="black" d="M738.28,-33.15C754.09,-33.15 773.17,-33.15 789.46,-33.15"/>
<polygon fill="black" stroke="black" points="789.7,-36.65 799.7,-33.15 789.7,-29.65 789.7,-36.65"/>
<text text-anchor="middle" x="768.98" y="-36.95" font-family="Times,serif" font-size="14.00" fill="blue">tz(1)</text>
</g>
</g>
</svg>
